<svg id="Layer_1" data-name="Layer 1" xmlns="http://www.w3.org/2000/svg" viewBox="0 0 992.88 351.37"><rect y="44.38" width="304.51" height="304.51" rx="46.73" style="fill:#3a73b9"/><path d="M86.56,102.07H175q24.32,0,39.82,15.48t15.48,43.14q0,27.66-14.38,42T175,217.1H112v74.1H86.56Zm25.43,21v73h57.52q15.48,0,24.33-8.85,10-9.94,10-26.54,0-18.8-8.85-27.65-10-10-25.44-10Z" style="fill:#f7f7f7"/><text/><path d="M329.85,214.85h20l29.75,86,29.75-86h20.05V325.44H414.57V240.72l-29.75,84.72H374.47l-29.75-84.72v84.72H329.85Z" style="fill:#3a73b9"/><path d="M460.21,258.83q7.11-7.11,20.69-7.12,16.17,0,23.29,7.12a20.49,20.49,0,0,1,6.47,14.87v40.75c0,4.75,1.71,8.41,5.17,11H500.31c-1.73-1.72-2.59-4.53-2.59-8.41q-9.71,9.71-24.58,9.71-12.28,0-18.75-6.47a18.62,18.62,0,0,1-5.82-13.58q0-9.06,5.82-14.88,6.45-6.45,18.11-8.41a90.39,90.39,0,0,0,13.58-3.23q8.4-1.95,11.64-3.88a12.41,12.41,0,0,0-3.88-9.06q-3.88-3.87-11-3.88c-6,0-10.34,1.3-12.93,3.88a16.11,16.11,0,0,0-3.88,7.12H451.8A30.47,30.47,0,0,1,460.21,258.83Zm37.51,29.75a58.54,58.54,0,0,1-7.11,1.94q-11,2.58-16.82,3.88a16.44,16.44,0,0,0-7.76,3.88,9.88,9.88,0,0,0-3.23,7.11,10.55,10.55,0,0,0,3.23,7.76c1.29,1.3,4.09,1.94,8.41,1.94q11,0,18.11-7.11c3-3,4.74-5.17,5.17-6.47Z" style="fill:#3a73b9"/><path d="M545.94,325.44H533V253h12.93v12.94q11.65-14.22,24.58-14.23t20.7,7.76a16.85,16.85,0,0,1,5.17,12.29v53.68H583.46v-49.8a13.19,13.19,0,0,0-3.88-9.7q-3.89-3.88-11-3.88-6.48,0-12.94,6.47-9.69,9.69-9.7,20.69Z" style="fill:#3a73b9"/><path d="M625.21,258.83q7.11-7.11,20.7-7.12,16.15,0,23.28,7.12a20.45,20.45,0,0,1,6.47,14.87v40.75q0,7.13,5.17,11H665.31c-1.73-1.72-2.59-4.53-2.59-8.41q-9.69,9.71-24.57,9.71-12.3,0-18.76-6.47a18.62,18.62,0,0,1-5.82-13.58q0-9.06,5.82-14.88,6.47-6.45,18.11-8.41a90.39,90.39,0,0,0,13.58-3.23q8.4-1.95,11.64-3.88a12.41,12.41,0,0,0-3.88-9.06q-3.87-3.87-11-3.88c-6.05,0-10.35,1.3-12.94,3.88a16.11,16.11,0,0,0-3.88,7.12H616.8A30.62,30.62,0,0,1,625.21,258.83Zm37.51,29.75a58.05,58.05,0,0,1-7.11,1.94q-11,2.58-16.82,3.88a16.48,16.48,0,0,0-7.76,3.88,9.88,9.88,0,0,0-3.23,7.11,10.55,10.55,0,0,0,3.23,7.76c1.3,1.3,4.09,1.94,8.41,1.94q11,0,18.11-7.11c3-3,4.74-5.17,5.17-6.47Z" style="fill:#3a73b9"/><path d="M706.42,258.83q7.11-7.11,18.11-7.12a27.47,27.47,0,0,1,18.11,6.47,21.15,21.15,0,0,1,15.52-6.47H764V264q-7.76-3.22-17.46-.65a21.55,21.55,0,0,1,4.53,13.59q0,11.64-7.12,18.75-6.46,6.48-18.76,6.47a32.61,32.61,0,0,1-13.58-3.24c-2.16,1.73-3.23,3.46-3.23,5.18a4.35,4.35,0,0,0,1.29,3.23q3.24,3.26,14.88,3.88,10.34.66,22,1.3,6.45,1.31,9.7,4.52a16.81,16.81,0,0,1,5.17,12.29,17.56,17.56,0,0,1-5.17,12.94q-7.12,7.11-31.05,7.11-20,0-27.16-7.11a15,15,0,0,1-4.53-11,10.54,10.54,0,0,1,3.24-7.76,30.07,30.07,0,0,1,7.76-5.17,30.8,30.8,0,0,1-4.53-3.88,11.35,11.35,0,0,1-3.23-8.41q0-6.46,9.7-12.29a23,23,0,0,1-7.12-16.81Q699.3,265.95,706.42,258.83Zm7.76,62.73c-3,.87-5.17,1.94-6.47,3.24a7.85,7.85,0,0,0,0,11.64q3.88,3.87,16.82,3.88,17.46,0,22-4.53c1.72-1.73,2.59-3.46,2.59-5.17a6.21,6.21,0,0,0-1.94-4.53c-1.73-1.72-4.75-2.59-9.06-2.59A226,226,0,0,1,714.18,321.56Zm2.59-55.62a15,15,0,0,0-4.53,11q0,6.46,3.88,10.34a12.39,12.39,0,0,0,9,3.88c3.89,0,6.9-1.07,9.06-3.23q3.88-3.89,3.88-11a15,15,0,0,0-4.53-11q-3.24-3.22-9.05-3.23A10.59,10.59,0,0,0,716.77,265.94Z" style="fill:#3a73b9"/><path d="M785,260.77q9-9.06,23.28-9.06a31.75,31.75,0,0,1,23.29,9.7q9,9.07,9,27.81H788.27q0,13.59,6.47,20,5.82,5.82,14.88,5.82t12.93-3.88a14.25,14.25,0,0,0,4.53-10.35h14.23q-2.59,11.65-8.41,17.47-8.42,8.42-23.28,8.41-15.52,0-25.23-9.71Q774,306.7,774,289.22T785,260.77Zm9.7,7.11a21,21,0,0,0-5.82,11h36.87a16.12,16.12,0,0,0-5.18-11.64c-3-3-7.34-4.52-12.93-4.52A17.55,17.55,0,0,0,794.74,267.88Z" style="fill:#3a73b9"/><path d="M907.64,251.71v14.23a31.34,31.34,0,0,0-7.11-.65q-9.71,0-18.11,8.41a38.22,38.22,0,0,0-9.7,14.88v36.86H859.78V253h12.94v18.11a50.81,50.81,0,0,1,7.11-9.05Q890.17,251.72,907.64,251.71Z" style="fill:#3a73b9"/><path d="M955.82,350.49H919.53V183.11c0-18.13,16.66-32.83,37.2-32.83l28.1,14c20.55,0-4.14,90.92-8.93,112.29Z" style="fill:#3a73b9"/><polygon points="529.4 204.23 584.4 204.51 605.57 173.35 550.37 173.35 529.4 204.23" style="fill:#3a73b9"/><polygon points="694.91 173.35 627.17 173.35 605.93 204.62 673.44 204.96 694.91 173.35" style="fill:#3a73b9"/><polygon points="805.85 173.35 784 205.52 926.83 206.25 926.83 173.35 805.85 173.35" style="fill:#3a73b9"/><polygon points="784.25 173.35 716.51 173.35 694.96 205.07 762.47 205.41 784.25 173.35" style="fill:#3a73b9"/><path d="M528.77,173.35H463a3.07,3.07,0,0,0-3.07,3.07v27.46l47.94.24Z" style="fill:#3a73b9"/><path d="M879.11,110.47c6.3,17.3,12.43,34.15,18.57,51,2.62-10.38,9.39-20.22,1.29-31.06-4-5.31-.89-9.74,5.76-9.81q4.44-.06,8.87,0c6.32.07,9.69,4.41,6,9.15-8.38,10.81-1.55,20.95,1,31.7,6.16-16.84,12.31-33.67,18.64-50.95,14,5.6,27.75,10.7,41.06,16.72a14.24,14.24,0,0,1,7,9.11c2.18,12.26,3.44,24.68,4.65,37.08.75,7.64-1.63,10-9.62,10q-73.2.1-146.42,0c-8,0-5.38-2.33-4.64-10,1.21-12.39,2.48-24.81,4.67-37.06.6-3.4,4.68-10.85,7.86-12.3C857.14,118,865.1,116.09,879.11,110.47Z" style="fill:#3a73b9"/><path d="M893.16,2.84c2,2.8,3.3,7,4.66,9l1.79-.46C900,8.57,900.46,3.48,901,0h16.49c.35,3.22.65,8.23,1.15,12.92,2.85-3.17,4.63-7.46,6.79-9.87,12.34,5,18.33,14.36,20.74,26.5a31.51,31.51,0,0,0,3.39,8.72c2.4,4.42,1.13,8.21-4.24,8.52-17.9,1.05-35.18,1.17-53.12,1.5a109.56,109.56,0,0,1-19-1.41c-5.78-.94-7-4.29-4.17-9a25.06,25.06,0,0,0,3.09-8.1C874.37,17.52,880.55,8.24,893.16,2.84Z" style="fill:#3a73b9"/><path d="M945.42,54.88c3.16,2.35,3,8.67.44,16.49a77.18,77.18,0,0,1-6.17,13.72,86.65,86.65,0,0,1-6.26,9.54c-1.13,1.63-10.5,14.76-24.57,14.43-9.67-.22-17.63-5.4-23.76-14.36-4.68-6.85-8.89-14-13-21.21-3.81-6.62-2.14-17.35,3-18.77,3.37-.93,7.22-.15,10.85-.22,15.12-.29,29.7.92,49.22-1.13C939.11,53,942.91,53,945.42,54.88Z" style="fill:#3a73b9"/><path d="M891.75,78.41c3.92,0,7.68-3.45,7.5-7.5a7.63,7.63,0,0,0-7.5-7.5c-3.93,0-7.68,3.45-7.5,7.5a7.63,7.63,0,0,0,7.5,7.5Z" style="fill:#fff"/><rect x="15.32" y="64.61" width="268.96" height="268.96" rx="30.5" style="fill:none;stroke:#fff;stroke-miterlimit:10;stroke-width:6px"/><path d="M928,78.41c3.93,0,7.69-3.45,7.5-7.5a7.63,7.63,0,0,0-7.5-7.5c-3.92,0-7.68,3.45-7.5,7.5a7.64,7.64,0,0,0,7.5,7.5Z" style="fill:#fff"/></svg>